<svg xmlns="http://www.w3.org/2000/svg" width="120" height="31" viewBox="0 0 120 31">
    <path fill="#FFF" fill-rule="evenodd" d="M3.618.071c1.999 0 3.619 1.607 3.619 3.59v23.75c0 1.982-1.62 3.589-3.619 3.589C1.62 31 0 29.393 0 27.41V3.66C0 1.679 1.62.072 3.618.072zm52.798 9.485c1.988 0 3.6 1.599 3.6 3.571v14.302c0 1.973-1.612 3.57-3.6 3.57s-3.6-1.597-3.6-3.57V13.127c0-1.972 1.612-3.57 3.6-3.57zm-45.76.656c1.606-1.115 3.818-.728 4.942.864L25.752 25.46c1.123 1.593.733 3.787-.872 4.902-1.605 1.115-3.817.728-4.941-.864L9.786 15.113c-1.124-1.592-.734-3.786.87-4.901zm28.034-.656c5.969 0 10.808 4.8 10.808 10.722 0 .161-.006.321-.013.48V27.9c0 1.713-1.399 3.101-3.125 3.101-1.043 0-1.964-.509-2.532-1.287C42.3 30.533 40.55 31 38.69 31c-5.969 0-10.808-4.8-10.808-10.722 0-5.921 4.84-10.722 10.808-10.722zM79.007.071c8.61 0 15.588 6.924 15.588 15.465 0 8.54-6.979 15.464-15.588 15.464-8.609 0-15.588-6.924-15.588-15.464C63.42 6.995 70.4.07 79.007.07zm26.861.016c2.335-.18 7.962-.028 8.595-.009 1.88.054 3.36 1.61 3.305 3.476-.054 1.865-1.648 3.346-3.503 3.279-1.621-.046-6.194-.14-7.862-.01-1.356.107-2.728.982-2.728 2.451 0 1.346 1.104 2.442 2.46 2.442h4.248c5.303 0 9.617 4.307 9.617 9.602 0 5.113-3.936 9.121-9.359 9.53-.959.072-2.504.097-4.126.097h-.287c-2.784-.005-5.702-.076-6.2-.088-1.881-.047-3.367-1.597-3.32-3.463.048-1.865 1.61-3.338 3.491-3.293 2.096.054 7.969.157 9.926.009 1.525-.115 3.063-1.023 3.063-2.792 0-1.542-1.284-2.845-2.805-2.845h-4.248c-5.112 0-9.271-4.127-9.271-9.199 0-4.838 3.87-8.787 9.004-9.187zM38.69 15.777c-2.501 0-4.537 2.02-4.537 4.501 0 2.482 2.036 4.5 4.537 4.5 2.502 0 4.537-2.018 4.537-4.5 0-2.481-2.035-4.5-4.537-4.5zM79.007 6.77c-4.872 0-8.836 3.933-8.836 8.767 0 4.833 3.964 8.766 8.836 8.766 4.873 0 8.837-3.933 8.837-8.766 0-4.834-3.964-8.767-8.837-8.767zM20.227.071l.218.005c2.536.114 4.558 2.19 4.558 4.734 0 2.617-2.139 4.74-4.777 4.74l-.219-.006c-2.536-.113-4.558-2.19-4.558-4.734 0-2.617 2.139-4.739 4.777-4.739z"/>
</svg>
