<?xml version="1.0" encoding="UTF-8"?>
<svg width="42px" height="27px" viewBox="0 0 42 27" version="1.1" xmlns="http://www.w3.org/2000/svg" xmlns:xlink="http://www.w3.org/1999/xlink">
    <title>10s</title>
    <defs>
        <path d="M270.077148,122 L270.077148,103.439453 L268.299805,103.439453 L263.386719,107.235352 L264.503906,108.682617 C266.298177,107.226888 267.305339,106.401693 267.525391,106.207031 C267.745443,106.01237 267.944336,105.826172 268.12207,105.648438 C268.054362,106.630208 268.020508,107.671224 268.020508,108.771484 L268.020508,108.771484 L268.020508,122 L270.077148,122 Z M283.280273,122.253906 C285.362305,122.253906 286.909017,121.462565 287.92041,119.879883 C288.931803,118.297201 289.4375,115.902018 289.4375,112.694336 C289.4375,109.59668 288.914876,107.23112 287.869629,105.597656 C286.824382,103.964193 285.294596,103.147461 283.280273,103.147461 C281.215169,103.147461 279.679036,103.930339 278.671875,105.496094 C277.664714,107.061849 277.161133,109.461263 277.161133,112.694336 C277.161133,115.825846 277.681641,118.201986 278.722656,119.822754 C279.763672,121.443522 281.282878,122.253906 283.280273,122.253906 Z M283.280273,120.438477 C281.892253,120.438477 280.880859,119.822754 280.246094,118.591309 C279.611328,117.359863 279.293945,115.394206 279.293945,112.694336 C279.293945,109.994466 279.611328,108.03304 280.246094,106.810059 C280.880859,105.587077 281.892253,104.975586 283.280273,104.975586 C284.685221,104.975586 285.702962,105.59554 286.333496,106.835449 C286.96403,108.075358 287.279297,110.02832 287.279297,112.694336 C287.279297,115.360352 286.96403,117.317546 286.333496,118.565918 C285.702962,119.81429 284.685221,120.438477 283.280273,120.438477 Z M293.801758,122.136719 C294.74056,122.136719 295.469727,121.947591 295.989258,121.569336 C296.508789,121.191081 296.768555,120.65332 296.768555,119.956055 C296.768555,119.45931 296.612467,119.046875 296.300293,118.71875 C295.988118,118.390625 295.387695,118.064779 294.499023,117.741211 C293.851888,117.499674 293.414388,117.315104 293.186523,117.1875 C292.958659,117.059896 292.793457,116.925456 292.690918,116.78418 C292.588379,116.642904 292.537109,116.472005 292.537109,116.271484 C292.537109,115.97526 292.673828,115.742839 292.947266,115.574219 C293.220703,115.405599 293.626302,115.321289 294.164062,115.321289 C294.77474,115.321289 295.456055,115.476237 296.208008,115.786133 L296.208008,115.786133 L296.611328,114.863281 C295.841146,114.535156 295.052734,114.371094 294.246094,114.371094 C293.380208,114.371094 292.698893,114.547689 292.202148,114.900879 C291.705404,115.254069 291.457031,115.736003 291.457031,116.34668 C291.457031,116.688477 291.528809,116.982422 291.672363,117.228516 C291.815918,117.474609 292.034668,117.694499 292.328613,117.888184 C292.622559,118.081868 293.118164,118.308594 293.81543,118.568359 C294.549154,118.850911 295.04248,119.095866 295.29541,119.303223 C295.54834,119.510579 295.674805,119.760091 295.674805,120.051758 C295.674805,120.439128 295.515299,120.727376 295.196289,120.916504 C294.877279,121.105632 294.421549,121.200195 293.829102,121.200195 C293.446289,121.200195 293.048665,121.147786 292.63623,121.042969 C292.223796,120.938151 291.837565,120.794596 291.477539,120.612305 L291.477539,120.612305 L291.477539,121.665039 C292.033529,121.979492 292.808268,122.136719 293.801758,122.136719 Z" id="path-1"></path>
        <filter x="-17.7%" y="-28.8%" width="134.6%" height="157.6%" filterUnits="objectBoundingBox" id="filter-2">
            <feMorphology radius="1" operator="dilate" in="SourceAlpha" result="shadowSpreadOuter1"></feMorphology>
            <feOffset dx="0" dy="0" in="shadowSpreadOuter1" result="shadowOffsetOuter1"></feOffset>
            <feGaussianBlur stdDeviation="1.5" in="shadowOffsetOuter1" result="shadowBlurOuter1"></feGaussianBlur>
            <feComposite in="shadowBlurOuter1" in2="SourceAlpha" operator="out" result="shadowBlurOuter1"></feComposite>
            <feColorMatrix values="0 0 0 0 0   0 0 0 0 0   0 0 0 0 0  0 0 0 0.5 0" type="matrix" in="shadowBlurOuter1"></feColorMatrix>
        </filter>
    </defs>
    <g id="Landscape" stroke="none" stroke-width="1" fill="none" fill-rule="evenodd">
        <g id="Camera---self-timer" transform="translate(-259.000000, -99.000000)" fill-rule="nonzero">
            <g id="10s">
                <use fill="black" fill-opacity="1" filter="url(#filter-2)" xlink:href="#path-1"></use>
                <path stroke-opacity="0.297202797" stroke="#000000" stroke-width="1" d="M283.280273,102.647461 C285.481561,102.647461 287.149617,103.544797 288.290784,105.32816 C289.375725,107.023655 289.9375,109.474322 289.9375,112.694336 C289.9375,116.027697 289.39102,118.507137 288.34173,120.149122 C287.238503,121.87551 285.557279,122.753906 283.280273,122.753906 C281.096501,122.753906 279.439068,121.863341 278.30196,120.092966 C277.221483,118.410761 276.661133,115.949525 276.661133,112.694336 C276.661133,109.33399 277.206351,106.850193 278.25136,105.2256 C279.350424,103.51697 281.020823,102.647461 283.280273,102.647461 Z M283.280273,105.475586 C282.687282,105.475586 282.172408,105.600286 281.739407,105.862079 C281.307335,106.123311 280.96049,106.519017 280.689878,107.040396 C280.07996,108.215505 279.793945,110.104313 279.793945,112.694336 C279.793945,115.285272 280.080419,117.178615 280.690524,118.362221 C280.961329,118.887581 281.30832,119.286366 281.740715,119.549603 C282.173348,119.812984 282.687793,119.938477 283.280273,119.938477 C283.88037,119.938477 284.400223,119.811306 284.835884,119.544113 C285.270965,119.277275 285.618228,118.873014 285.887194,118.340498 C286.49352,117.140052 286.779297,115.254311 286.779297,112.694336 C286.779297,110.135243 286.493956,108.254038 285.887814,107.062093 C285.619042,106.533568 285.271927,106.132393 284.837176,105.867565 C284.401152,105.601963 283.880876,105.475586 283.280273,105.475586 Z M294.246094,113.871094 C295.279802,113.871094 296.286148,114.118882 297.264616,114.617025 L297.264616,114.617025 L296.473601,116.426976 C295.368242,115.979233 294.733623,115.821289 294.164062,115.821289 C293.747087,115.821289 293.424171,115.867553 293.20971,115.999804 C293.646469,116.872008 294.061618,117.044262 294.670088,117.271385 L294.910659,117.361855 C295.767334,117.694792 296.344974,118.040317 296.662541,118.374111 C297.061669,118.793632 297.268555,119.31889 297.268555,119.956055 C297.268555,120.831751 296.933257,121.500522 296.283554,121.973551 C295.694128,122.402695 294.871975,122.636719 293.801758,122.636719 C292.539108,122.636719 291.602541,122.388943 290.977539,121.938022 L290.977539,121.938022 L290.977539,119.823827 C291.993582,120.315356 292.362926,120.457616 292.759387,120.558374 C293.129241,120.65237 293.485747,120.700195 293.829102,120.700195 C294.307168,120.700195 294.68179,120.640263 294.941304,120.486408 C294.749599,119.502305 294.298,119.289987 293.640875,119.0369 C292.895261,118.759122 292.367649,118.512688 292.053508,118.305696 C291.687087,118.064257 291.419017,117.786525 291.240474,117.480451 C291.055906,117.16405 290.957031,116.78743 290.957031,116.34668 C290.957031,115.563796 291.275662,114.946118 291.912414,114.493382 C292.479574,114.090126 293.25304,113.871094 294.246094,113.871094 Z M270.577148,102.939453 L270.577148,122.5 L267.520507,122.5 L267.520517,108.768374 L267.52461,108.112149 C267.527349,107.894385 267.53146,107.679019 267.536942,107.466049 L267.557,106.834 L267.529112,106.858265 C267.044629,107.260762 266.089374,108.040513 264.663133,109.197276 L264.421065,109.393561 L262.685528,107.145251 L268.129152,102.939453 L270.577148,102.939453 Z" fill="#FFFFFF" fill-rule="evenodd"></path>
            </g>
        </g>
    </g>
</svg>