<?xml version="1.0" encoding="UTF-8"?>
<svg width="28px" height="27px" viewBox="0 0 28 27" version="1.1" xmlns="http://www.w3.org/2000/svg" xmlns:xlink="http://www.w3.org/1999/xlink">
    <title>3s</title>
    <defs>
        <path d="M203.271484,122.253906 C205.53125,122.253906 207.27474,121.777832 208.501953,120.825684 C209.729167,119.873535 210.342773,118.513021 210.342773,116.744141 C210.342773,115.508464 209.983073,114.509766 209.263672,113.748047 C208.544271,112.986328 207.439779,112.51237 205.950195,112.326172 L205.950195,112.326172 L205.950195,112.224609 C207.168945,111.970703 208.110514,111.467122 208.774902,110.713867 C209.43929,109.960612 209.771484,108.991536 209.771484,107.806641 C209.771484,106.367839 209.272135,105.23584 208.273438,104.410645 C207.27474,103.585449 205.874023,103.172852 204.071289,103.172852 C202.971029,103.172852 201.923665,103.344238 200.929199,103.687012 C199.934733,104.029785 199.056641,104.501628 198.294922,105.102539 L198.294922,105.102539 L199.361328,106.524414 C200.283854,105.931966 201.104818,105.525716 201.824219,105.305664 C202.54362,105.085612 203.30957,104.975586 204.12207,104.975586 C205.188477,104.975586 206.032715,105.233724 206.654785,105.75 C207.276855,106.266276 207.587891,106.977214 207.587891,107.882812 C207.587891,109.016927 207.164714,109.903483 206.318359,110.54248 C205.472005,111.181478 204.325195,111.500977 202.87793,111.500977 L202.87793,111.500977 L201.024414,111.500977 L201.024414,113.316406 L202.852539,113.316406 C206.390299,113.316406 208.15918,114.442057 208.15918,116.693359 C208.15918,119.207031 206.555339,120.463867 203.347656,120.463867 C202.535156,120.463867 201.673991,120.360189 200.76416,120.152832 C199.854329,119.945475 198.997396,119.642904 198.193359,119.245117 L198.193359,119.245117 L198.193359,121.250977 C198.963542,121.623372 199.756999,121.883626 200.57373,122.031738 C201.390462,122.17985 202.289714,122.253906 203.271484,122.253906 Z M214.935547,122.136719 C215.874349,122.136719 216.603516,121.947591 217.123047,121.569336 C217.642578,121.191081 217.902344,120.65332 217.902344,119.956055 C217.902344,119.45931 217.746257,119.046875 217.434082,118.71875 C217.121908,118.390625 216.521484,118.064779 215.632812,117.741211 C214.985677,117.499674 214.548177,117.315104 214.320312,117.1875 C214.092448,117.059896 213.927246,116.925456 213.824707,116.78418 C213.722168,116.642904 213.670898,116.472005 213.670898,116.271484 C213.670898,115.97526 213.807617,115.742839 214.081055,115.574219 C214.354492,115.405599 214.760091,115.321289 215.297852,115.321289 C215.908529,115.321289 216.589844,115.476237 217.341797,115.786133 L217.341797,115.786133 L217.745117,114.863281 C216.974935,114.535156 216.186523,114.371094 215.379883,114.371094 C214.513997,114.371094 213.832682,114.547689 213.335938,114.900879 C212.839193,115.254069 212.59082,115.736003 212.59082,116.34668 C212.59082,116.688477 212.662598,116.982422 212.806152,117.228516 C212.949707,117.474609 213.168457,117.694499 213.462402,117.888184 C213.756348,118.081868 214.251953,118.308594 214.949219,118.568359 C215.682943,118.850911 216.17627,119.095866 216.429199,119.303223 C216.682129,119.510579 216.808594,119.760091 216.808594,120.051758 C216.808594,120.439128 216.649089,120.727376 216.330078,120.916504 C216.011068,121.105632 215.555339,121.200195 214.962891,121.200195 C214.580078,121.200195 214.182454,121.147786 213.77002,121.042969 C213.357585,120.938151 212.971354,120.794596 212.611328,120.612305 L212.611328,120.612305 L212.611328,121.665039 C213.167318,121.979492 213.942057,122.136719 214.935547,122.136719 Z" id="path-1"></path>
        <filter x="-29.4%" y="-28.8%" width="158.0%" height="157.6%" filterUnits="objectBoundingBox" id="filter-2">
            <feMorphology radius="1" operator="dilate" in="SourceAlpha" result="shadowSpreadOuter1"></feMorphology>
            <feOffset dx="0" dy="0" in="shadowSpreadOuter1" result="shadowOffsetOuter1"></feOffset>
            <feGaussianBlur stdDeviation="1.5" in="shadowOffsetOuter1" result="shadowBlurOuter1"></feGaussianBlur>
            <feComposite in="shadowBlurOuter1" in2="SourceAlpha" operator="out" result="shadowBlurOuter1"></feComposite>
            <feColorMatrix values="0 0 0 0 0   0 0 0 0 0   0 0 0 0 0  0 0 0 0.5 0" type="matrix" in="shadowBlurOuter1"></feColorMatrix>
        </filter>
    </defs>
    <g id="Landscape" stroke="none" stroke-width="1" fill="none" fill-rule="evenodd">
        <g id="Camera---self-timer" transform="translate(-194.000000, -99.000000)" fill-rule="nonzero">
            <g id="3s">
                <use fill="black" fill-opacity="1" filter="url(#filter-2)" xlink:href="#path-1"></use>
                <path stroke-opacity="0.297202797" stroke="#000000" stroke-width="1" d="M204.071289,102.672852 C206.016567,102.672852 207.517531,103.137461 208.59192,104.025199 C209.703971,104.944054 210.271484,106.200694 210.271484,107.806641 C210.271484,109.12955 209.889855,110.205659 209.149883,111.044608 C208.742177,111.506848 208.241002,111.886816 207.64444,112.180874 C208.522515,112.502499 209.150537,112.900056 209.627178,113.404735 C210.429013,114.253737 210.842773,115.363139 210.842773,116.744141 C210.842773,118.689643 210.154444,120.176422 208.808452,121.220726 C207.509325,122.228669 205.669551,122.753906 203.271484,122.753906 C202.257201,122.753906 201.328254,122.676724 200.484512,122.523714 C199.5236,122.349455 198.593135,122.028235 197.693359,121.559303 L197.693359,121.559303 L197.693359,118.457607 C199.163049,119.168222 199.992982,119.464254 200.875265,119.665333 C201.745968,119.863772 202.570037,119.963867 203.347656,119.963867 C204.806945,119.963867 205.914507,119.702396 206.647893,119.127685 C207.33821,118.586724 207.65918,117.76639 207.65918,116.693359 C207.65918,115.759251 207.301216,115.051561 206.564082,114.582475 C205.739295,114.057611 204.496824,113.816406 202.852539,113.816406 L202.852539,113.816406 L200.524414,113.816406 L200.524414,111.000977 L202.870521,111.000977 C204.335815,110.957142 205.297979,110.686365 206.017084,110.14344 C206.736456,109.600314 207.087891,108.843916 207.087891,107.882812 C207.087891,107.144719 206.845316,106.557895 206.335466,106.134753 C205.791825,105.683568 205.049118,105.475586 204.12207,105.475586 C203.361373,105.475586 202.644084,105.57775 201.970471,105.783796 C201.187509,106.02329 200.280046,106.498999 199.243823,107.201074 L199.243823,107.201074 L197.595156,105.002851 C198.824778,104.053865 199.736662,103.569188 200.766266,103.214304 C201.8123,102.853756 202.913903,102.672852 204.071289,102.672852 Z M215.379883,113.871094 C216.413591,113.871094 217.419937,114.118882 218.398405,114.617025 L218.398405,114.617025 L217.60739,116.426976 C216.502031,115.979233 215.867412,115.821289 215.297852,115.821289 C214.880876,115.821289 214.55796,115.867553 214.343499,115.999804 C214.780258,116.872008 215.195407,117.044262 215.803877,117.271385 C216.793949,117.631872 217.449893,118.009972 217.79633,118.374111 C218.195458,118.793632 218.402344,119.31889 218.402344,119.956055 C218.402344,120.831751 218.067046,121.500522 217.417344,121.973551 C216.827917,122.402695 216.005764,122.636719 214.935547,122.636719 C213.672897,122.636719 212.73633,122.388943 212.111328,121.938022 L212.111328,121.938022 L212.111328,119.823827 C213.127371,120.315356 213.496715,120.457616 213.893176,120.558374 C214.26303,120.65237 214.619536,120.700195 214.962891,120.700195 C215.440957,120.700195 215.815579,120.640263 216.075093,120.486408 C215.883388,119.502305 215.43179,119.289987 214.774664,119.0369 C214.02905,118.759122 213.501438,118.512688 213.187297,118.305696 C212.820876,118.064257 212.552806,117.786525 212.374263,117.480451 C212.189695,117.16405 212.09082,116.78743 212.09082,116.34668 C212.09082,115.563796 212.409451,114.946118 213.046203,114.493382 C213.613363,114.090126 214.386829,113.871094 215.379883,113.871094 Z" fill="#FFFFFF" fill-rule="evenodd"></path>
            </g>
        </g>
    </g>
</svg>