<?xml version="1.0" encoding="UTF-8"?>
<svg width="27px" height="27px" viewBox="0 0 27 27" version="1.1" xmlns="http://www.w3.org/2000/svg" xmlns:xlink="http://www.w3.org/1999/xlink">
    <title>5s</title>
    <defs>
        <path d="M241.474609,122.253906 C243.624349,122.253906 245.31071,121.708008 246.533691,120.616211 C247.756673,119.524414 248.368164,118.017904 248.368164,116.09668 C248.368164,114.412435 247.807454,113.085775 246.686035,112.116699 C245.564616,111.147624 244.026367,110.663086 242.071289,110.663086 C241.106445,110.663086 240.13737,110.760417 239.164062,110.955078 L239.164062,110.955078 L239.633789,105.381836 L247.060547,105.381836 L247.060547,103.439453 L237.831055,103.439453 L237.132812,112.123047 L238.224609,112.821289 C239.570312,112.575846 240.645182,112.453125 241.449219,112.453125 C244.623047,112.453125 246.209961,113.748047 246.209961,116.337891 C246.209961,117.666667 245.797363,118.682292 244.972168,119.384766 C244.146973,120.08724 242.989583,120.438477 241.5,120.438477 C240.645182,120.438477 239.777669,120.330566 238.897461,120.114746 C238.017253,119.898926 237.280924,119.600586 236.688477,119.219727 L236.688477,119.219727 L236.688477,121.250977 C237.788737,121.919596 239.384115,122.253906 241.474609,122.253906 Z M252.935547,122.136719 C253.874349,122.136719 254.603516,121.947591 255.123047,121.569336 C255.642578,121.191081 255.902344,120.65332 255.902344,119.956055 C255.902344,119.45931 255.746257,119.046875 255.434082,118.71875 C255.121908,118.390625 254.521484,118.064779 253.632812,117.741211 C252.985677,117.499674 252.548177,117.315104 252.320312,117.1875 C252.092448,117.059896 251.927246,116.925456 251.824707,116.78418 C251.722168,116.642904 251.670898,116.472005 251.670898,116.271484 C251.670898,115.97526 251.807617,115.742839 252.081055,115.574219 C252.354492,115.405599 252.760091,115.321289 253.297852,115.321289 C253.908529,115.321289 254.589844,115.476237 255.341797,115.786133 L255.341797,115.786133 L255.745117,114.863281 C254.974935,114.535156 254.186523,114.371094 253.379883,114.371094 C252.513997,114.371094 251.832682,114.547689 251.335938,114.900879 C250.839193,115.254069 250.59082,115.736003 250.59082,116.34668 C250.59082,116.688477 250.662598,116.982422 250.806152,117.228516 C250.949707,117.474609 251.168457,117.694499 251.462402,117.888184 C251.756348,118.081868 252.251953,118.308594 252.949219,118.568359 C253.682943,118.850911 254.17627,119.095866 254.429199,119.303223 C254.682129,119.510579 254.808594,119.760091 254.808594,120.051758 C254.808594,120.439128 254.649089,120.727376 254.330078,120.916504 C254.011068,121.105632 253.555339,121.200195 252.962891,121.200195 C252.580078,121.200195 252.182454,121.147786 251.77002,121.042969 C251.357585,120.938151 250.971354,120.794596 250.611328,120.612305 L250.611328,120.612305 L250.611328,121.665039 C251.167318,121.979492 251.942057,122.136719 252.935547,122.136719 Z" id="path-1"></path>
        <filter x="-28.6%" y="-29.2%" width="158.0%" height="158.5%" filterUnits="objectBoundingBox" id="filter-2">
            <feMorphology radius="1" operator="dilate" in="SourceAlpha" result="shadowSpreadOuter1"></feMorphology>
            <feOffset dx="0" dy="0" in="shadowSpreadOuter1" result="shadowOffsetOuter1"></feOffset>
            <feGaussianBlur stdDeviation="1.5" in="shadowOffsetOuter1" result="shadowBlurOuter1"></feGaussianBlur>
            <feComposite in="shadowBlurOuter1" in2="SourceAlpha" operator="out" result="shadowBlurOuter1"></feComposite>
            <feColorMatrix values="0 0 0 0 0   0 0 0 0 0   0 0 0 0 0  0 0 0 0.5 0" type="matrix" in="shadowBlurOuter1"></feColorMatrix>
        </filter>
    </defs>
    <g id="Landscape" stroke="none" stroke-width="1" fill="none" fill-rule="evenodd">
        <g id="Camera---self-timer" transform="translate(-233.000000, -99.000000)" fill-rule="nonzero">
            <g id="5s">
                <use fill="black" fill-opacity="1" filter="url(#filter-2)" xlink:href="#path-1"></use>
                <path stroke-opacity="0.297202797" stroke="#000000" stroke-width="1" d="M247.560547,102.939453 L247.560547,105.881836 L240.093421,105.881836 L239.716113,110.358534 C240.69446,110.210224 241.383958,110.163086 242.071289,110.163086 C244.170254,110.163086 245.812093,110.700657 247.012957,111.738384 C248.240972,112.799575 248.868164,114.248004 248.868164,116.09668 C248.868164,118.181573 248.190587,119.807301 246.866674,120.989203 C245.563197,122.15286 243.771498,122.753906 241.474609,122.753906 C239.108867,122.753906 237.35212,122.328379 236.188477,121.522326 L236.188477,121.522326 L236.188477,118.310081 C237.282213,119.055283 238.058697,119.394277 239.01653,119.62913 C239.856468,119.835077 240.684258,119.938477 241.5,119.938477 C242.844469,119.938477 243.899893,119.640939 244.64806,119.004037 C245.370142,118.389342 245.709961,117.493267 245.709961,116.337891 C245.709961,115.224449 245.391621,114.373083 244.703663,113.811709 C243.980453,113.22157 242.887736,112.953125 241.449219,112.953125 C240.629417,112.953125 239.520279,113.086666 238.121475,113.348839 L238.121475,113.348839 L236.610343,112.382417 L237.369646,102.939453 L247.560547,102.939453 Z M253.379883,113.871094 C254.413591,113.871094 255.419937,114.118882 256.398405,114.617025 L256.398405,114.617025 L255.60739,116.426976 C254.502031,115.979233 253.867412,115.821289 253.297852,115.821289 C252.880876,115.821289 252.55796,115.867553 252.343499,115.999804 C252.780258,116.872008 253.195407,117.044262 253.803877,117.271385 C254.793949,117.631872 255.449893,118.009972 255.79633,118.374111 C256.195458,118.793632 256.402344,119.31889 256.402344,119.956055 C256.402344,120.831751 256.067046,121.500522 255.417344,121.973551 C254.827917,122.402695 254.005764,122.636719 252.935547,122.636719 C251.672897,122.636719 250.73633,122.388943 250.111328,121.938022 L250.111328,121.938022 L250.111328,119.823827 C251.127371,120.315356 251.496715,120.457616 251.893176,120.558374 C252.26303,120.65237 252.619536,120.700195 252.962891,120.700195 C253.440957,120.700195 253.815579,120.640263 254.075093,120.486408 C253.883388,119.502305 253.43179,119.289987 252.774664,119.0369 C252.02905,118.759122 251.501438,118.512688 251.187297,118.305696 C250.820876,118.064257 250.552806,117.786525 250.374263,117.480451 C250.189695,117.16405 250.09082,116.78743 250.09082,116.34668 C250.09082,115.563796 250.409451,114.946118 251.046203,114.493382 C251.613363,114.090126 252.386829,113.871094 253.379883,113.871094 Z" fill="#FFFFFF" fill-rule="evenodd"></path>
            </g>
        </g>
    </g>
</svg>