<svg xmlns="http://www.w3.org/2000/svg" width="64" height="64" viewBox="0 0 64 64">
    <path fill="#FFF" d="M27 37c1.105 0 2 .896 2 2v7h2c.553 0 1 .448 1 1 0 .217-.07.428-.2.6l-4 5.334c-.331.442-.958.531-1.4.2-.075-.057-.143-.124-.2-.2l-4-5.333c-.331-.442-.241-1.069.2-1.4.173-.13.384-.2.6-.2h2v-7c0-1.105.896-2 2-2zm10.68-1.067l.12.134 4 5.334c.13.173.2.383.2.6 0 .49-.353.899-.82.983l-.18.017-2-.002v7.002c0 1.104-.895 2-2 2-1.104 0-2-.896-2-2v-7.002l-2 .002c-.162 0-.32-.04-.463-.114L32.4 42.8c-.392-.295-.507-.823-.295-1.247l.095-.153 4-5.334c.057-.076.125-.143.2-.2.344-.257.8-.26 1.141-.041l.139.107zM32 14c6.73 0 12.352 4.588 13.806 10.738C51.492 25.104 56 29.682 56 35.334c0 5.74-4.746 10.421-9.615 10.657l-.477.01c-1.104 0-2-.894-2-2 0-1.026.773-1.871 1.767-1.987l.233-.013H46c3 0 6-2.991 6-6.667 0-3.35-2.642-6.171-6.079-6.57l-.371-.034-2.956-.192-.68-2.88C40.848 21.15 36.772 18 32 18c-4.618 0-8.584 2.95-9.8 7.226l-.112.432-.682 2.88-2.954.192C14.834 28.962 12 31.864 12 35.334c0 3.55 2.797 6.46 5.609 6.655L18 42c1.104 0 2 .896 2 2 0 1.027-.773 1.871-1.767 1.987L18 46h-.09C13 46 8 41.226 8 35.334c0-5.652 4.51-10.23 10.194-10.596C19.648 18.588 25.27 14 32 14z"/>
</svg>
