<svg xmlns="http://www.w3.org/2000/svg" width="64" height="64" viewBox="0 0 64 64">
    <path fill="#FFF" d="M24.663 36.663c.884-.884 2.318-.884 3.202 0l4.136 4.136 4.134-4.136c.884-.884 2.318-.884 3.202 0 .884.884.884 2.318 0 3.202L35.201 44l4.136 4.136c.884.884.884 2.318 0 3.202-.884.884-2.318.884-3.202 0l-4.134-4.136-4.136 4.136c-.884.884-2.318.884-3.202 0-.884-.884-.884-2.318 0-3.202L28.799 44l-4.136-4.134c-.884-.884-.884-2.318 0-3.202zM32 14c6.73 0 12.352 4.588 13.806 10.738C51.492 25.103 56 29.681 56 35.333 56 41.225 51.116 46 45.092 46H44c-1.104 0-2-.894-2-2 0-1.104.896-2 2-2h1.092C48.9 42 52 39.01 52 35.333c0-3.47-2.834-6.372-6.45-6.604l-2.956-.192-.68-2.88C40.848 21.15 36.772 18 32 18c-4.772 0-8.848 3.15-9.912 7.658l-.682 2.88-2.954.192C14.834 28.961 12 31.863 12 35.333 12 39.01 15.1 42 18.91 42H20c1.104 0 2 .896 2 2 0 1.106-.896 2-2 2h-1.09C12.886 46 8 41.225 8 35.333c0-5.652 4.51-10.23 10.194-10.596C19.648 18.587 25.27 14 32 14z"/>
</svg>
