<svg id="Layer_1" data-name="Layer 1" xmlns="http://www.w3.org/2000/svg" viewBox="0 0 32 32"><defs><style>.cls-1{fill-rule:evenodd;}</style></defs><title>launcher_icon_panel</title><path class="cls-1" d="M0,18.46V32H13.54A13.54,13.54,0,0,1,0,18.46Z"/><polygon class="cls-1" points="15 10 14.94 15 10 15 10 17 14.94 17 15 22 17 22 17 17 22 17 22 15 17 15 17 10 15 10"/><path class="cls-1" d="M13.54,0H0V13.54A13.54,13.54,0,0,1,13.54,0Z"/><path class="cls-1" d="M18.46,0A13.54,13.54,0,0,1,32,13.54V0H18.46Z"/><path class="cls-1" d="M18.46,32H32V18.46A13.54,13.54,0,0,1,18.46,32Z"/></svg>