<?xml version="1.0" encoding="UTF-8"?>
<svg width="160px" height="160px" viewBox="0 0 160 160" version="1.1" xmlns="http://www.w3.org/2000/svg" xmlns:xlink="http://www.w3.org/1999/xlink">
    <!-- Generator: Sketch 57.1 (83088) - https://sketch.com -->
    <title>img_calendar_empty_light</title>
    <desc>Created with Sketch.</desc>
    <defs>
        <rect id="path-1" x="0" y="0" width="160" height="160"></rect>
    </defs>
    <g id="img_calendar_empty_light" stroke="none" stroke-width="1" fill="none" fill-rule="evenodd">
        <g id="Pattern/light/grid_01">
            <g id="Grid">
                <mask id="mask-2" fill="white">
                    <use xlink:href="#path-1"></use>
                </mask>
                <g id="Mask"></g>
                <path d="M8,128 L7,128 L7,119 L5,119 L5,118 L7,118 L7,93 L-1,93 L-1,92 L7,92 L7,67 L-1,67 L-1,66 L7,66 L7,41 L5,41 L5,40 L7,40 L7,31 L8,31 L8,40 L33,40 L33,16 L27,16 L27,15 L33,15 L33,10 L34,10 L34,15 L59,15 L59,1 L60,1 L60,15 L85,15 L85,-1 L86,-1 L86,15 L111,15 L111,3 L112,3 L112,15 L133,15 L133,16 L112,16 L112,40 L136,40 L136,20 L137,20 L137,40 L154,40 L154,41 L137,41 L137,66 L160,66 L160,67 L137,67 L137,92 L160,92 L160,93 L137,93 L137,118 L154,118 L154,119 L137,119 L137,138 L136,138 L136,119 L112,119 L112,144 L135,144 L135,145 L112,145 L112,156 L111,156 L111,145 L86,145 L86,160 L85,160 L85,145 L60,145 L60,159 L59,159 L59,145 L34,145 L34,153 L33,153 L33,145 L23,145 L23,144 L33,144 L33,119 L8,119 L8,128 Z M59,119 L34,119 L34,144 L59,144 L59,119 Z M85,119 L60,119 L60,144 L85,144 L85,119 Z M111,119 L86,119 L86,144 L111,144 L111,119 Z M8,118 L33,118 L33,93 L8,93 L8,118 Z M59,93 L34,93 L34,118 L59,118 L59,93 Z M85,93 L60,93 L60,118 L85,118 L85,93 Z M111,93 L86,93 L86,118 L111,118 L111,93 Z M136,93 L112,93 L112,118 L136,118 L136,93 Z M8,92 L33,92 L33,67 L8,67 L8,92 Z M59,67 L34,67 L34,92 L59,92 L59,67 Z M85,67 L60,67 L60,92 L85,92 L85,67 Z M111,67 L86,67 L86,92 L111,92 L111,67 Z M136,67 L112,67 L112,92 L136,92 L136,67 Z M8,66 L33,66 L33,41 L8,41 L8,66 Z M59,41 L34,41 L34,66 L59,66 L59,41 Z M85,41 L60,41 L60,66 L85,66 L85,41 Z M111,41 L86,41 L86,66 L111,66 L111,41 Z M136,41 L112,41 L112,66 L136,66 L136,41 Z M59,16 L34,16 L34,40 L59,40 L59,16 Z M85,16 L60,16 L60,40 L85,40 L85,16 Z M111,16 L86,16 L86,40 L111,40 L111,16 Z" id="Combined-Shape" fill="#B2B2C2" mask="url(#mask-2)"></path>
            </g>
        </g>
        <g id="icon" transform="translate(32.000000, 25.000000)">
            <path d="M69,0 C72.8659932,0 76,3.13400675 76,7 L84,7 C90.627417,7 96,12.372583 96,19 L96,93 C96,99.627417 90.627417,105 84,105 L12,105 C5.372583,105 0,99.627417 0,93 L0,19 C0,12.372583 5.372583,7 12,7 L20,7 C20,3.13400675 23.1340068,0 27,0 C30.8659932,0 34,3.13400675 34,7 L62,7 C62,3.13400675 65.1340068,0 69,0 Z" id="Path" fill="#FF4F1A"></path>
            <path d="M10,31 L86,31 L86,90 C86,92.7614237 83.7614237,95 81,95 L15,95 C12.2385763,95 10,92.7614237 10,90 L10,31 Z" id="Rectangle" fill="#E9E9F2"></path>
            <path d="M66.2550417,44.7449583 C68.5816528,47.0715693 68.5816528,50.8437511 66.2550417,53.1703621 L56.426,63 L66.2550417,72.8296379 C68.5816528,75.1562489 68.5816528,78.9284307 66.2550417,81.2550417 C63.9284307,83.5816528 60.1562489,83.5816528 57.8296379,81.2550417 L48,71.426 L38.1703621,81.2550417 C35.8437511,83.5816528 32.0715693,83.5816528 29.7449583,81.2550417 C27.4183472,78.9284307 27.4183472,75.1562489 29.7449583,72.8296379 L39.574,63 L29.7449583,53.1703621 C27.4183472,50.8437511 27.4183472,47.0715693 29.7449583,44.7449583 C32.0715693,42.4183472 35.8437511,42.4183472 38.1703621,44.7449583 L48,54.574 L57.8296379,44.7449583 C60.1562489,42.4183472 63.9284307,42.4183472 66.2550417,44.7449583 Z" id="close-icon" fill="#000000"></path>
        </g>
    </g>
</svg>